<?xml version="1.0" encoding="UTF-8"?>
<svg id="Ebene_1" xmlns="http://www.w3.org/2000/svg" version="1.1" viewBox="0 0 897.41 838">
  <!-- Generator: Adobe Illustrator 30.0.0, SVG Export Plug-In . SVG Version: 2.1.1 Build 123)  -->
  <defs>
    <style>
      .st0 {
        fill: #005bb9;
      }

      .st1 {
        fill: #00a8f2;
      }
    </style>
  </defs>
  <path class="st0" d="M659.84,153.56c2.92,23.94,5.43,47.12,3.63,72.44-4.88,68.83-30.62,134.61-57.22,197.54-4.86,11.49-24.08,56.91-32.96,60.94-.72.33-1.5.53-2.3.7l-1.24-4.23c16.1-94.89-73.39-174.68-166.26-145.83-91.7,28.49-121.2,142.93-55.99,212.68l1.6,4.51c6.3,10.26,17.58,24.51,27.04,35.71,34.71,41.11,71.7,83.09,109.25,122.28,43.02,44.91,87.53,88.22,147.11,109.23l5.36,4.02c-107.31,3.15-215.94.74-323.45,1.05-108.35.31-222.77-7.08-283.72-110.38C-22.48,624.16.15,538.15,47.67,452.88c65.16-116.92,138.45-229.6,203.15-346.85,96.69-136.74,309.59-129.17,393.2,17.86,5.51,9.68,10.13,19.84,15.83,29.67Z"/>
  <path class="st1" d="M637.84,823.56c-40.59-13.88-75.59-36.63-107.01-65.49-42.79-39.29-86.99-89.58-125.5-133.5-18.32-20.89-40.75-45.24-55.69-68.31-.97-1.5-1.55-3.15-1.55-3.15-.83-2.3-.98-4.35-.98-5.73,2.12,2.12,4.25,4.25,6.37,6.37,72.29,67.85,192.43,31.17,214.71-65.16.52-2.55,1.04-5.1,1.56-7.66,14.73-21.13,25.28-39.58,32.27-52.71,59.77-112.27,61.3-213.63,59.81-239.17-.67-11.61-5.02-23.99-1.99-35.51,53.38,92.13,109.38,182.87,162.17,275.33,41.62,72.89,74.65,133.78,55.15,221.49-26.4,118.74-124.39,169.8-239.32,173.18Z"/>
</svg>